<?xml version="1.0" encoding="UTF-8"?>
<!--Generator: Apple Native CoreSVG 341-->
<!DOCTYPE svg
PUBLIC "-//W3C//DTD SVG 1.1//EN"
       "http://www.w3.org/Graphics/SVG/1.1/DTD/svg11.dtd">
<svg version="1.1" xmlns="http://www.w3.org/2000/svg" xmlns:xlink="http://www.w3.org/1999/xlink" viewBox="0 0 3300 2200">
 <!--glyph: "", point size: 100.0, font version: "20.0d10e1", template writer version: "138.0.0"-->
 <style>.monochrome-0 {-sfsymbols-motion-group:1;-sfsymbols-layer-tags:-31731ce77e99f381 -5174a4738877537d tshirt.circle}
.monochrome-1 {-sfsymbols-motion-group:1;-sfsymbols-layer-tags:-31731ce77e99f381 -5174a4738877537d tshirt.circle}
.monochrome-2 {opacity:0.0;-sfsymbols-clear-behind:true;-sfsymbols-motion-group:0;-sfsymbols-layer-tags:-31731ce77e99f381 _badge plus}
.monochrome-3 {-sfsymbols-motion-group:0;-sfsymbols-always-pulses:true;-sfsymbols-layer-tags:-31731ce77e99f381 _badge plus}
.monochrome-4 {opacity:0.0;-sfsymbols-clear-behind:true;-sfsymbols-motion-group:0;-sfsymbols-always-pulses:true;-sfsymbols-layer-tags:-31731ce77e99f381 _badge plus}

.multicolor-0:tintColor {-sfsymbols-motion-group:1;-sfsymbols-layer-tags:-31731ce77e99f381 -5174a4738877537d tshirt.circle}
.multicolor-1:tintColor {-sfsymbols-motion-group:1;-sfsymbols-layer-tags:-31731ce77e99f381 -5174a4738877537d tshirt.circle}
.multicolor-2:tintColor {opacity:0.0;-sfsymbols-clear-behind:true;-sfsymbols-motion-group:0;-sfsymbols-layer-tags:-31731ce77e99f381 _badge plus}
.multicolor-3:systemGreenColor {-sfsymbols-motion-group:0;-sfsymbols-always-pulses:true;-sfsymbols-layer-tags:-31731ce77e99f381 _badge plus}
.multicolor-4:white {-sfsymbols-motion-group:0;-sfsymbols-always-pulses:true;-sfsymbols-layer-tags:-31731ce77e99f381 _badge plus}

.hierarchical-0:secondary {-sfsymbols-motion-group:1;-sfsymbols-layer-tags:-31731ce77e99f381 -5174a4738877537d tshirt.circle}
.hierarchical-1:secondary {-sfsymbols-motion-group:1;-sfsymbols-layer-tags:-31731ce77e99f381 -5174a4738877537d tshirt.circle}
.hierarchical-2:primary {opacity:0.0;-sfsymbols-clear-behind:true;-sfsymbols-motion-group:0;-sfsymbols-layer-tags:-31731ce77e99f381 _badge plus}
.hierarchical-3:primary {-sfsymbols-motion-group:0;-sfsymbols-layer-tags:-31731ce77e99f381 _badge plus}
.hierarchical-4:primary {opacity:0.0;-sfsymbols-clear-behind:true;-sfsymbols-motion-group:0;-sfsymbols-layer-tags:-31731ce77e99f381 _badge plus}

.SFSymbolsPreviewWireframe {fill:none;opacity:1.0;stroke:black;stroke-width:0.5}
</style>
 <g id="Notes">
  <rect height="2200" id="artboard" style="fill:white;opacity:1" width="3300" x="0" y="0"/>
  <line style="fill:none;stroke:black;opacity:1;stroke-width:0.5;" x1="263" x2="3036" y1="292" y2="292"/>
  <text style="stroke:none;fill:black;font-family:sans-serif;font-size:13;font-weight:bold;" transform="matrix(1 0 0 1 263 322)">Weight/Scale Variations</text>
  <text style="stroke:none;fill:black;font-family:sans-serif;font-size:13;text-anchor:middle;" transform="matrix(1 0 0 1 559.711 322)">Ultralight</text>
  <text style="stroke:none;fill:black;font-family:sans-serif;font-size:13;text-anchor:middle;" transform="matrix(1 0 0 1 856.422 322)">Thin</text>
  <text style="stroke:none;fill:black;font-family:sans-serif;font-size:13;text-anchor:middle;" transform="matrix(1 0 0 1 1153.13 322)">Light</text>
  <text style="stroke:none;fill:black;font-family:sans-serif;font-size:13;text-anchor:middle;" transform="matrix(1 0 0 1 1449.84 322)">Regular</text>
  <text style="stroke:none;fill:black;font-family:sans-serif;font-size:13;text-anchor:middle;" transform="matrix(1 0 0 1 1746.56 322)">Medium</text>
  <text style="stroke:none;fill:black;font-family:sans-serif;font-size:13;text-anchor:middle;" transform="matrix(1 0 0 1 2043.27 322)">Semibold</text>
  <text style="stroke:none;fill:black;font-family:sans-serif;font-size:13;text-anchor:middle;" transform="matrix(1 0 0 1 2339.98 322)">Bold</text>
  <text style="stroke:none;fill:black;font-family:sans-serif;font-size:13;text-anchor:middle;" transform="matrix(1 0 0 1 2636.69 322)">Heavy</text>
  <text style="stroke:none;fill:black;font-family:sans-serif;font-size:13;text-anchor:middle;" transform="matrix(1 0 0 1 2933.4 322)">Black</text>
  <line style="fill:none;stroke:black;opacity:1;stroke-width:0.5;" x1="263" x2="3036" y1="1903" y2="1903"/>
  <g transform="matrix(0.2 0 0 0.2 263 1933)">
   <path d="m46.2402 4.15039c21.7773 0 39.4531-17.627 39.4531-39.4043s-17.6758-39.4043-39.4531-39.4043c-21.7285 0-39.4043 17.627-39.4043 39.4043s17.6758 39.4043 39.4043 39.4043Zm0-7.42188c-17.6758 0-31.9336-14.3066-31.9336-31.9824s14.2578-31.9824 31.9336-31.9824 31.9824 14.3066 31.9824 31.9824-14.3066 31.9824-31.9824 31.9824Zm-17.9688-31.9824c0 2.14844 1.51367 3.61328 3.75977 3.61328h10.498v10.5957c0 2.19727 1.46484 3.71094 3.61328 3.71094 2.24609 0 3.71094-1.51367 3.71094-3.71094v-10.5957h10.5957c2.19727 0 3.71094-1.46484 3.71094-3.61328 0-2.19727-1.51367-3.71094-3.71094-3.71094h-10.5957v-10.5469c0-2.24609-1.46484-3.75977-3.71094-3.75977-2.14844 0-3.61328 1.51367-3.61328 3.75977v10.5469h-10.498c-2.24609 0-3.75977 1.51367-3.75977 3.71094Z"/>
  </g>
  <g transform="matrix(0.2 0 0 0.2 281.506 1933)">
   <path d="m58.5449 14.5508c27.4902 0 49.8047-22.3145 49.8047-49.8047s-22.3145-49.8047-49.8047-49.8047-49.8047 22.3145-49.8047 49.8047 22.3145 49.8047 49.8047 49.8047Zm0-8.30078c-22.9492 0-41.5039-18.5547-41.5039-41.5039s18.5547-41.5039 41.5039-41.5039 41.5039 18.5547 41.5039 41.5039-18.5547 41.5039-41.5039 41.5039Zm-22.6562-41.5039c0 2.39258 1.66016 4.00391 4.15039 4.00391h14.3555v14.4043c0 2.44141 1.66016 4.15039 4.05273 4.15039 2.44141 0 4.15039-1.66016 4.15039-4.15039v-14.4043h14.4043c2.44141 0 4.15039-1.61133 4.15039-4.00391 0-2.44141-1.70898-4.15039-4.15039-4.15039h-14.4043v-14.3555c0-2.49023-1.70898-4.19922-4.15039-4.19922-2.39258 0-4.05273 1.70898-4.05273 4.19922v14.3555h-14.3555c-2.49023 0-4.15039 1.70898-4.15039 4.15039Z"/>
  </g>
  <g transform="matrix(0.2 0 0 0.2 304.924 1933)">
   <path d="m74.8535 28.3203c35.1074 0 63.623-28.4668 63.623-63.5742s-28.5156-63.623-63.623-63.623-63.5742 28.5156-63.5742 63.623 28.4668 63.5742 63.5742 63.5742Zm0-9.08203c-30.127 0-54.4922-24.3652-54.4922-54.4922s24.3652-54.4922 54.4922-54.4922 54.4922 24.3652 54.4922 54.4922-24.3652 54.4922-54.4922 54.4922Zm-28.8574-54.4922c0 2.58789 1.85547 4.39453 4.58984 4.39453h19.7266v19.7754c0 2.68555 1.85547 4.58984 4.44336 4.58984 2.68555 0 4.54102-1.85547 4.54102-4.58984v-19.7754h19.7754c2.68555 0 4.58984-1.80664 4.58984-4.39453 0-2.73438-1.85547-4.58984-4.58984-4.58984h-19.7754v-19.7266c0-2.73438-1.85547-4.63867-4.54102-4.63867-2.58789 0-4.44336 1.9043-4.44336 4.63867v19.7266h-19.7266c-2.73438 0-4.58984 1.85547-4.58984 4.58984Z"/>
  </g>
  <text style="stroke:none;fill:black;font-family:sans-serif;font-size:13;font-weight:bold;" transform="matrix(1 0 0 1 263 1953)">Design Variations</text>
  <text style="stroke:none;fill:black;font-family:sans-serif;font-size:13;" transform="matrix(1 0 0 1 263 1971)">Symbols are supported in up to nine weights and three scales.</text>
  <text style="stroke:none;fill:black;font-family:sans-serif;font-size:13;" transform="matrix(1 0 0 1 263 1989)">For optimal layout with text and other symbols, vertically align</text>
  <text style="stroke:none;fill:black;font-family:sans-serif;font-size:13;" transform="matrix(1 0 0 1 263 2007)">symbols with the adjacent text.</text>
  <line style="fill:none;stroke:#00AEEF;stroke-width:0.5;opacity:1.0;" x1="776" x2="776" y1="1919" y2="1933"/>
  <g transform="matrix(0.2 0 0 0.2 776 1933)">
   <path d="m16.5527 0.78125c2.58789 0 3.85742-0.976562 4.78516-3.71094l6.29883-17.2363h28.8086l6.29883 17.2363c0.927734 2.73438 2.19727 3.71094 4.73633 3.71094 2.58789 0 4.24805-1.5625 4.24805-4.00391 0-0.830078-0.146484-1.61133-0.537109-2.63672l-22.9004-60.9863c-1.12305-2.97852-3.125-4.49219-6.25-4.49219-3.02734 0-5.07812 1.46484-6.15234 4.44336l-22.9004 61.084c-0.390625 1.02539-0.537109 1.80664-0.537109 2.63672 0 2.44141 1.5625 3.95508 4.10156 3.95508Zm13.4766-28.3691 11.8652-32.8613h0.244141l11.8652 32.8613Z"/>
  </g>
  <line style="fill:none;stroke:#00AEEF;stroke-width:0.5;opacity:1.0;" x1="792.836" x2="792.836" y1="1919" y2="1933"/>
  <text style="stroke:none;fill:black;font-family:sans-serif;font-size:13;font-weight:bold;" transform="matrix(1 0 0 1 776 1953)">Margins</text>
  <text style="stroke:none;fill:black;font-family:sans-serif;font-size:13;" transform="matrix(1 0 0 1 776 1971)">Leading and trailing margins on the left and right side of each symbol</text>
  <text style="stroke:none;fill:black;font-family:sans-serif;font-size:13;" transform="matrix(1 0 0 1 776 1989)">can be adjusted by modifying the x-location of the margin guidelines.</text>
  <text style="stroke:none;fill:black;font-family:sans-serif;font-size:13;" transform="matrix(1 0 0 1 776 2007)">Modifications are automatically applied proportionally to all</text>
  <text style="stroke:none;fill:black;font-family:sans-serif;font-size:13;" transform="matrix(1 0 0 1 776 2025)">scales and weights.</text>
  <g transform="matrix(0.2 0 0 0.2 1289 1933)">
   <path d="m14.209 9.32617 8.49609 8.54492c4.29688 4.3457 9.22852 4.05273 13.8672-1.07422l53.4668-58.9355-4.83398-4.88281-53.0762 58.3984c-1.75781 2.00195-3.41797 2.49023-5.76172 0.146484l-5.85938-5.81055c-2.34375-2.29492-1.80664-4.00391 0.195312-5.81055l57.373-54.0039-4.88281-4.83398-57.959 54.4434c-4.93164 4.58984-5.32227 9.47266-1.02539 13.8184Zm32.0801-90.9668c-2.09961 2.05078-2.24609 4.93164-1.07422 6.88477 1.17188 1.80664 3.4668 2.97852 6.68945 2.14844 7.32422-1.70898 14.9414-2.00195 22.0703 2.68555l-2.92969 7.27539c-1.70898 4.15039-0.830078 7.08008 1.85547 9.81445l11.4746 11.5723c2.44141 2.44141 4.49219 2.53906 7.32422 2.05078l5.32227-0.976562 3.32031 3.36914-0.195312 2.7832c-0.195312 2.49023 0.439453 4.39453 2.88086 6.78711l3.80859 3.71094c2.39258 2.39258 5.46875 2.53906 7.8125 0.195312l14.5508-14.5996c2.34375-2.34375 2.24609-5.32227-0.146484-7.71484l-3.85742-3.80859c-2.39258-2.39258-4.24805-3.17383-6.64062-2.97852l-2.88086 0.244141-3.22266-3.17383 1.2207-5.61523c0.634766-2.83203-0.146484-5.0293-3.07617-7.95898l-10.9863-10.9375c-16.6992-16.6016-38.8672-16.2109-53.3203-1.75781Zm7.4707 1.85547c12.1582-8.88672 28.6133-7.37305 39.7461 3.75977l12.1582 12.0605c1.17188 1.17188 1.36719 2.09961 1.02539 3.80859l-1.61133 7.42188 7.51953 7.42188 4.93164-0.292969c1.26953-0.0488281 1.66016 0.0488281 2.63672 1.02539l2.88086 2.88086-12.207 12.207-2.88086-2.88086c-0.976562-0.976562-1.12305-1.36719-1.07422-2.68555l0.341797-4.88281-7.4707-7.42188-7.61719 1.26953c-1.61133 0.341797-2.34375 0.195312-3.56445-0.976562l-10.0098-10.0098c-1.26953-1.17188-1.41602-2.00195-0.634766-3.85742l4.39453-10.4492c-7.8125-7.27539-17.9688-10.4004-28.125-7.42188-0.78125 0.195312-1.07422-0.439453-0.439453-0.976562Z"/>
  </g>
  <text style="stroke:none;fill:black;font-family:sans-serif;font-size:13;font-weight:bold;" transform="matrix(1 0 0 1 1289 1953)">Exporting</text>
  <text style="stroke:none;fill:black;font-family:sans-serif;font-size:13;" transform="matrix(1 0 0 1 1289 1971)">Symbols should be outlined when exporting to ensure the</text>
  <text style="stroke:none;fill:black;font-family:sans-serif;font-size:13;" transform="matrix(1 0 0 1 1289 1989)">design is preserved when submitting to Xcode.</text>
  <text id="template-version" style="stroke:none;fill:black;font-family:sans-serif;font-size:13;text-anchor:end;" transform="matrix(1 0 0 1 3036 1933)">Template v.6.0</text>
  <text style="stroke:none;fill:black;font-family:sans-serif;font-size:13;text-anchor:end;" transform="matrix(1 0 0 1 3036 1951)">Requires Xcode 16 or greater</text>
  <text id="descriptive-name" style="stroke:none;fill:black;font-family:sans-serif;font-size:13;text-anchor:end;" transform="matrix(1 0 0 1 3036 1969)">Generated from </text>
  <text style="stroke:none;fill:black;font-family:sans-serif;font-size:13;text-anchor:end;" transform="matrix(1 0 0 1 3036 1987)">Typeset at 100.0 points</text>
  <text style="stroke:none;fill:black;font-family:sans-serif;font-size:13;" transform="matrix(1 0 0 1 263 726)">Small</text>
  <text style="stroke:none;fill:black;font-family:sans-serif;font-size:13;" transform="matrix(1 0 0 1 263 1156)">Medium</text>
  <text style="stroke:none;fill:black;font-family:sans-serif;font-size:13;" transform="matrix(1 0 0 1 263 1586)">Large</text>
 </g>
 <g id="Guides">
  <g id="H-reference" style="fill:#27AAE1;stroke:none;" transform="matrix(1 0 0 1 339 696)">
   <path d="M0.993654 0L3.63775 0L29.3281-67.1323L30.0303-67.1323L30.0303-70.459L28.1226-70.459ZM11.6885-24.4799L46.9815-24.4799L46.2315-26.7285L12.4385-26.7285ZM55.1196 0L57.7637 0L30.6382-70.459L29.4326-70.459L29.4326-67.1323Z"/>
  </g>
  <line id="Baseline-S" style="fill:none;stroke:#27AAE1;opacity:1;stroke-width:0.5;" x1="263" x2="3036" y1="696" y2="696"/>
  <line id="Capline-S" style="fill:none;stroke:#27AAE1;opacity:1;stroke-width:0.5;" x1="263" x2="3036" y1="625.541" y2="625.541"/>
  <g id="H-reference" style="fill:#27AAE1;stroke:none;" transform="matrix(1 0 0 1 339 1126)">
   <path d="M0.993654 0L3.63775 0L29.3281-67.1323L30.0303-67.1323L30.0303-70.459L28.1226-70.459ZM11.6885-24.4799L46.9815-24.4799L46.2315-26.7285L12.4385-26.7285ZM55.1196 0L57.7637 0L30.6382-70.459L29.4326-70.459L29.4326-67.1323Z"/>
  </g>
  <line id="Baseline-M" style="fill:none;stroke:#27AAE1;opacity:1;stroke-width:0.5;" x1="263" x2="3036" y1="1126" y2="1126"/>
  <line id="Capline-M" style="fill:none;stroke:#27AAE1;opacity:1;stroke-width:0.5;" x1="263" x2="3036" y1="1055.54" y2="1055.54"/>
  <g id="H-reference" style="fill:#27AAE1;stroke:none;" transform="matrix(1 0 0 1 339 1556)">
   <path d="M0.993654 0L3.63775 0L29.3281-67.1323L30.0303-67.1323L30.0303-70.459L28.1226-70.459ZM11.6885-24.4799L46.9815-24.4799L46.2315-26.7285L12.4385-26.7285ZM55.1196 0L57.7637 0L30.6382-70.459L29.4326-70.459L29.4326-67.1323Z"/>
  </g>
  <line id="Baseline-L" style="fill:none;stroke:#27AAE1;opacity:1;stroke-width:0.5;" x1="263" x2="3036" y1="1556" y2="1556"/>
  <line id="Capline-L" style="fill:none;stroke:#27AAE1;opacity:1;stroke-width:0.5;" x1="263" x2="3036" y1="1485.54" y2="1485.54"/>
  <line id="right-margin-Black-S" style="fill:none;stroke:#FF3B30;stroke-width:0.5;opacity:1.0;" x1="2982.23" x2="2982.23" y1="600.785" y2="720.121"/>
  <line id="left-margin-Black-S" style="fill:none;stroke:#00AEEF;stroke-width:0.5;opacity:1.0;" x1="2884.57" x2="2884.57" y1="600.785" y2="720.121"/>
  <line id="right-margin-Regular-S" style="fill:none;stroke:#FF3B30;stroke-width:0.5;opacity:1.0;" x1="1496.11" x2="1496.11" y1="600.785" y2="720.121"/>
  <line id="left-margin-Regular-S" style="fill:none;stroke:#00AEEF;stroke-width:0.5;opacity:1.0;" x1="1403.58" x2="1403.58" y1="600.785" y2="720.121"/>
  <line id="right-margin-Ultralight-S" style="fill:none;stroke:#FF3B30;stroke-width:0.5;opacity:1.0;" x1="603.773" x2="603.773" y1="600.785" y2="720.121"/>
  <line id="left-margin-Ultralight-S" style="fill:none;stroke:#00AEEF;stroke-width:0.5;opacity:1.0;" x1="515.649" x2="515.649" y1="600.785" y2="720.121"/>
 </g>
 <g id="Symbols">
  <g id="Black-S" transform="matrix(1 0 0 1 2884.57 696)">
   <path class="monochrome-0 multicolor-0:tintColor hierarchical-0:secondary SFSymbolsPreviewWireframe" d="M48.8281 6.73828C72.0215 6.73828 90.8203-12.0605 90.8203-35.2539C90.8203-58.4473 72.0215-77.2461 48.8281-77.2461C25.6348-77.2461 6.83594-58.4473 6.83594-35.2539C6.83594-12.0605 25.6348 6.73828 48.8281 6.73828ZM48.8281-7.42188C33.4473-7.42188 20.9961-19.873 20.9961-35.2539C20.9961-50.6348 33.4473-63.0859 48.8281-63.0859C64.209-63.0859 76.6602-50.6348 76.6602-35.2539C76.6602-19.873 64.209-7.42188 48.8281-7.42188Z"/>
   <path class="monochrome-1 multicolor-1:tintColor hierarchical-1:secondary SFSymbolsPreviewWireframe" d="M40.8203-16.0645L56.8359-16.0645C60.3516-16.0645 62.4023-18.1152 62.4512-21.582L62.6465-34.668L64.2578-34.375C66.9922-33.8379 68.8965-34.9609 69.3848-37.3535L70.5566-43.2129C71.0449-45.6543 69.9219-47.7051 67.5781-48.6816L57.373-52.9297C56.25-53.418 55.3223-53.418 54.3457-52.9297C52.0508-51.8555 50.7812-51.5625 48.8281-51.5625C46.875-51.5625 45.6055-51.8555 43.3105-52.9297C42.334-53.418 41.4062-53.418 40.2832-52.9297L30.0781-48.6816C27.7344-47.7051 26.6113-45.6543 27.0996-43.2129L28.2715-37.3535C28.7598-34.9609 30.6641-33.8379 33.3984-34.375L35.0098-34.668L35.1562-21.582C35.2539-18.1152 37.3047-16.0645 40.8203-16.0645ZM48.8281-45.0195C47.0215-45.0195 45.166-46.0938 44.5801-47.2656C45.9473-46.9238 47.3145-46.7773 48.8281-46.7773C50.3418-46.7773 51.709-46.9238 53.0762-47.2656C52.4902-46.0938 50.6348-45.0195 48.8281-45.0195Z"/>
   <path class="monochrome-2 multicolor-2:tintColor hierarchical-2:primary SFSymbolsPreviewWireframe" d="M87.8941 20.2491C102.836 20.2491 115.189 7.84665 115.189-7.09475C115.189-22.0361 102.836-34.3408 87.8941-34.3408C72.9527-34.3408 60.5992-22.0361 60.5992-7.09475C60.5992 7.84665 72.9527 20.2491 87.8941 20.2491Z"/>
   <path class="monochrome-3 multicolor-3:systemGreenColor hierarchical-3:primary SFSymbolsPreviewWireframe" d="M87.8941 13.9014C99.3688 13.9014 108.842 4.33105 108.842-7.09475C108.842-18.5205 99.3688-27.9931 87.8941-27.9931C76.4195-27.9931 66.9468-18.5205 66.9468-7.09475C66.9468 4.33105 76.4195 13.9014 87.8941 13.9014Z"/>
   <path class="monochrome-4 multicolor-4:white hierarchical-4:primary SFSymbolsPreviewWireframe" d="M87.8941 6.96775C85.5503 6.96775 83.9878 5.40525 83.9878 3.11035L83.9878-3.13965L77.8355-3.13965C75.5406-3.13965 73.9292-4.70215 73.9292-7.04595C73.9292-9.38965 75.4429-10.9521 77.8355-10.9521L83.9878-10.9521L83.9878-17.0556C83.9878-19.3505 85.5503-20.9619 87.8941-20.9619C90.2378-20.9619 91.8003-19.4482 91.8003-17.0556L91.8003-10.9521L98.0018-10.9521C100.297-10.9521 101.859-9.38965 101.859-7.04595C101.859-4.70215 100.297-3.13965 98.0018-3.13965L91.8003-3.13965L91.8003 3.11035C91.8003 5.40525 90.2378 6.96775 87.8941 6.96775Z"/>
  </g>
  <g id="Regular-S" transform="matrix(1 0 0 1 1403.58 696)">
   <path class="monochrome-0 multicolor-0:tintColor hierarchical-0:secondary SFSymbolsPreviewWireframe" d="M46.2402 4.15039C68.0176 4.15039 85.6934-13.4766 85.6934-35.2539C85.6934-57.0312 68.0176-74.6582 46.2402-74.6582C24.5117-74.6582 6.83594-57.0312 6.83594-35.2539C6.83594-13.4766 24.5117 4.15039 46.2402 4.15039ZM46.2402-3.27148C28.5645-3.27148 14.3066-17.5781 14.3066-35.2539C14.3066-52.9297 28.5645-67.2363 46.2402-67.2363C63.916-67.2363 78.2227-52.9297 78.2227-35.2539C78.2227-17.5781 63.916-3.27148 46.2402-3.27148Z"/>
   <path class="monochrome-1 multicolor-1:tintColor hierarchical-1:secondary SFSymbolsPreviewWireframe" d="M36.9141-14.9902L55.2734-14.9902C58.6914-14.9902 60.3516-16.6016 60.4004-20.0195L60.6445-37.5L64.8926-36.5723C66.6504-36.1816 67.8223-36.9141 68.2617-38.7207L69.873-45.166C70.2637-46.9727 69.5801-48.2422 67.8711-48.9746L55.2246-54.248C54.4434-54.5898 53.7598-54.5898 53.0273-54.248C50.5859-53.0762 48.7793-52.5391 46.0938-52.5391C43.4082-52.5391 41.6504-53.0762 39.1602-54.248C38.4766-54.5898 37.793-54.5898 37.0117-54.248L24.3164-48.9746C22.6562-48.2422 21.9727-46.9727 22.4121-45.166L23.9746-38.7207C24.3652-36.9141 25.5859-36.1816 27.2949-36.5723L31.543-37.5L31.7871-20.0195C31.8359-16.6016 33.5449-14.9902 36.9141-14.9902ZM46.0938-46.9238C43.1641-46.9238 41.1621-48.1934 40.2344-50.5859C41.9434-49.9512 43.9941-49.6582 46.0938-49.6582C48.1934-49.6582 50.2441-49.9512 52.002-50.5859C51.0254-48.2422 49.1211-46.9238 46.0938-46.9238Z"/>
   <path class="monochrome-2 multicolor-2:tintColor hierarchical-2:primary SFSymbolsPreviewWireframe" d="M83.277 18.3447C97.0956 18.3447 108.668 6.7725 108.668-7.0459C108.668-20.9619 97.1926-32.4365 83.277-32.4365C69.3121-32.4365 57.8864-20.9619 57.8864-7.0459C57.8864 6.919 69.3121 18.3447 83.277 18.3447Z"/>
   <path class="monochrome-3 multicolor-3:systemGreenColor hierarchical-3:primary SFSymbolsPreviewWireframe" d="M83.277 12.6318C93.9216 12.6318 102.955 3.6963 102.955-7.0459C102.955-17.8369 94.0676-26.7236 83.277-26.7236C72.486-26.7236 63.5504-17.8369 63.5504-7.0459C63.5504 3.794 72.486 12.6318 83.277 12.6318Z"/>
   <path class="monochrome-4 multicolor-4:white hierarchical-4:primary SFSymbolsPreviewWireframe" d="M83.277 5.21C81.7145 5.21 80.7379 4.1846 80.7379 2.6709L80.7379-4.5068L73.5602-4.5068C72.0465-4.5068 71.0211-5.5322 71.0211-7.0459C71.0211-8.5596 72.0465-9.585 73.5602-9.585L80.7379-9.585L80.7379-16.7627C80.7379-18.2764 81.7145-19.3018 83.277-19.3018C84.7906-19.3018 85.816-18.2764 85.816-16.7627L85.816-9.585L92.9936-9.585C94.5076-9.585 95.4836-8.5596 95.4836-7.0459C95.4836-5.5322 94.5076-4.5068 92.9936-4.5068L85.816-4.5068L85.816 2.6709C85.816 4.1846 84.7906 5.21 83.277 5.21Z"/>
  </g>
  <g id="Ultralight-S" transform="matrix(1 0 0 1 515.649 696)">
   <path class="monochrome-0 multicolor-0:tintColor hierarchical-0:secondary SFSymbolsPreviewWireframe" d="M44.0606 1.97072C64.6118 1.97072 81.2886-14.7026 81.2886-35.2539C81.2886-55.8052 64.6118-72.4785 44.0606-72.4785C23.5127-72.4785 6.83594-55.8052 6.83594-35.2539C6.83594-14.7026 23.5127 1.97072 44.0606 1.97072ZM44.0606-0.274438C24.7046-0.274438 9.0391-15.898 9.0391-35.2539C9.0391-54.6099 24.7046-70.2334 44.0606-70.2334C63.4165-70.2334 79.04-54.6099 79.04-35.2539C79.04-15.898 63.4165-0.274438 44.0606-0.274438Z"/>
   <path class="monochrome-1 multicolor-1:tintColor hierarchical-1:secondary SFSymbolsPreviewWireframe" d="M34.2349-14.7178L53.9111-14.7178C57.0567-14.7178 58.5352-16.1475 58.584-19.2022L58.8281-39.3618L64.5293-38.1162C65.833-37.8164 66.6416-38.3218 67.0357-39.6289L68.9649-45.938C69.3555-47.2905 68.7627-48.2876 67.417-48.8838L53.5899-55.3379C52.9448-55.5889 52.4883-55.5434 51.9829-55.2471C49.9048-54.2114 46.9175-53.4018 44.0503-53.4018C41.2285-53.4018 38.2447-54.2114 36.1631-55.2471C35.6612-55.5434 35.2046-55.5889 34.5596-55.3379L20.729-48.8838C19.3867-48.2876 18.794-47.2905 19.188-45.938L21.1138-39.6289C21.5044-38.3218 22.3164-37.8164 23.6167-38.1162L29.3179-39.3618L29.562-19.2022C29.6109-16.1475 31.0928-14.7178 34.2349-14.7178ZM44.0503-48.604C41.3931-48.604 38.5283-50.0552 37.8731-52.4477C39.9453-51.7676 42.1777-51.4292 44.0503-51.4292C45.9683-51.4292 48.1553-51.7676 50.2764-52.4477C49.6177-50.0586 46.7598-48.604 44.0503-48.604Z"/>
   <path class="monochrome-2 multicolor-2:tintColor hierarchical-2:primary SFSymbolsPreviewWireframe" d="M79.3341 14.3033C90.9727 14.3033 100.684 4.68365 100.684-7.04585C100.684-18.7821 91.0247-28.395 79.3341-28.395C67.6397-28.395 57.9395-18.7367 57.9395-7.04585C57.9395 4.69395 67.6397 14.3033 79.3341 14.3033Z"/>
   <path class="monochrome-3 multicolor-3:systemGreenColor hierarchical-3:primary SFSymbolsPreviewWireframe" d="M79.3341 11.2242C89.2977 11.2242 97.6037 3.01515 97.6037-7.04585C97.6037-17.1103 89.3527-25.3158 79.3341-25.3158C69.315-25.3158 61.0152-17.0649 61.0152-7.04585C61.0152 3.02205 69.315 11.2242 79.3341 11.2242Z"/>
   <path class="monochrome-4 multicolor-4:white hierarchical-4:primary SFSymbolsPreviewWireframe" d="M79.3341 4.84675C78.3619 4.84675 77.794 4.18465 77.794 3.30665L77.794-5.55125L68.9361-5.55125C68.149-5.55125 67.4415-6.07705 67.4415-7.04585C67.4415-8.01465 68.149-8.58595 68.9361-8.58595L77.794-8.58595L77.794-17.3529C77.794-18.1855 78.3619-18.893 79.3341-18.893C80.2574-18.893 80.8287-18.1855 80.8287-17.3529L80.8287-8.58595L89.6407-8.58595C90.4737-8.58595 91.1327-8.01465 91.1327-7.04585C91.1327-6.07705 90.4737-5.55125 89.6407-5.55125L80.8287-5.55125L80.8287 3.30665C80.8287 4.18465 80.2574 4.84675 79.3341 4.84675Z"/>
  </g>
 </g>
</svg>
